PathFileType	4	(X/Y/Z)	c:/Users/goper/Files/vsCode/490R/osim_files/C07/C07_Fast_02.trc
DataRate	CameraRate	NumFrames	NumMarkers	Units                	OrigDataRate	OrigDataStartFrame	OrigNumFrames
250.00	250.00	9	36	mm	250.0	1305	1739
                Frame#	Time	LPSIS			LASIS			LTH1			LTH2			LTH3			LTH4			LLFE			LMFE			LSH1			LSH2			LSH3			LSH4			LLMAL			LMMAL			LCAL			LMTP5			LTOE			LMTP1			RPSIS			RASIS			RTH1			RTH2			RTH3			RTH4			RLFE			RMFE			RSH1			RSH2			RSH3			RSH4			RLMAL			RMMAL			RCAL			RMTP1			RTOE			RMTP5		
		X1	Y1	Z1	X2	Y2	Z2	X3	Y3	Z3	X4	Y4	Z4	X5	Y5	Z5	X6	Y6	Z6	X7	Y7	Z7	X8	Y8	Z8	X9	Y9	Z9	X10	Y10	Z10	X11	Y11	Z11	X12	Y12	Z12	X13	Y13	Z13	X14	Y14	Z14	X15	Y15	Z15	X16	Y16	Z16	X17	Y17	Z17	X18	Y18	Z18	X19	Y19	Z19	X20	Y20	Z20	X21	Y21	Z21	X22	Y22	Z22	X23	Y23	Z23	X24	Y24	Z24	X25	Y25	Z25	X26	Y26	Z26	X27	Y27	Z27	X28	Y28	Z28	X29	Y29	Z29	X30	Y30	Z30	X31	Y31	Z31	X32	Y32	Z32	X33	Y33	Z33	X34	Y34	Z34	X35	Y35	Z35	X36	Y36	Z36

1305	5.21600	-2876.38232	986.59711	381.39474	-2896.03857	953.76971	565.65369	0.00000	0.00000	0.00000	0.00000	0.00000	0.00000	-2913.75830	599.65063	515.20923	-2945.05640	689.75806	572.34406	0.00000	0.00000	0.00000	-2939.49390	480.95471	473.89444	0.00000	0.00000	0.00000	0.00000	0.00000	0.00000	-3058.59204	40.76709	262.21564	0.00000	0.00000	0.00000	-2893.10889	112.09157	277.35437	-2949.76904	149.27757	238.69510	-2861.34937	71.33115	195.99228	-2984.41406	36.96438	342.26932	-3056.70850	44.64312	318.55795	0.00000	0.00000	0.00000	0.00000	0.00000	0.00000	-3112.58716	971.17029	440.72263	0.00000	0.00000	0.00000	-3184.77856	768.16919	497.03506	0.00000	0.00000	0.00000	-3198.83374	757.41266	420.79456	-3223.45410	513.00842	487.60504	0.00000	0.00000	0.00000	0.00000	0.00000	0.00000	0.00000	0.00000	0.00000	-3281.15405	349.63266	513.99341	0.00000	0.00000	0.00000	-3305.86084	107.18690	512.19525	-3225.03101	115.21088	542.28235	-3262.84961	38.35688	481.64819	-3219.17480	91.04086	681.02441	-3266.63989	105.07669	704.65601	-3326.73071	69.16393	672.00415
1306	5.22000	-2878.51074	986.48767	382.71960	-2896.71533	953.57690	567.44324	0.00000	0.00000	0.00000	0.00000	0.00000	0.00000	-2915.78491	599.78748	516.75830	-2945.41406	689.55475	574.14062	0.00000	0.00000	0.00000	-2940.10767	480.71921	475.60632	0.00000	0.00000	0.00000	0.00000	0.00000	0.00000	-3058.68359	40.81652	262.27197	0.00000	0.00000	0.00000	-2895.37329	112.10604	281.80908	-2951.08911	149.96159	239.57365	-2861.72144	72.33771	196.25096	-2984.42188	36.99352	342.27164	-3056.68188	44.67629	318.63861	0.00000	0.00000	0.00000	0.00000	0.00000	0.00000	-3114.21216	970.90442	443.87201	0.00000	0.00000	0.00000	-3186.06592	767.93274	500.80310	0.00000	0.00000	0.00000	-3200.36597	757.00403	424.64343	-3223.91309	512.68829	492.08923	0.00000	0.00000	0.00000	0.00000	0.00000	0.00000	0.00000	0.00000	0.00000	-3281.05078	349.01355	519.05560	0.00000	0.00000	0.00000	0.00000	0.00000	0.00000	-3224.31812	114.65871	546.52612	-3262.62720	37.75148	486.29770	-3216.97485	90.60620	685.23761	-3264.19580	104.58006	709.26593	-3324.70947	68.67496	677.19153
1307	5.22400	-2880.73291	986.28290	384.08206	-2897.49976	953.51276	569.15485	0.00000	0.00000	0.00000	0.00000	0.00000	0.00000	-2914.92114	599.38062	518.49243	-2945.73438	689.37378	575.89795	0.00000	0.00000	0.00000	-2940.61694	480.54749	477.27460	0.00000	0.00000	0.00000	0.00000	0.00000	0.00000	-3058.70605	40.85050	262.30841	0.00000	0.00000	0.00000	-2895.66431	112.64989	282.08557	-2951.55298	150.50967	240.18481	-2862.52246	73.06792	194.88548	-2984.44824	37.01886	342.27567	-3056.64868	44.67827	318.70020	0.00000	0.00000	0.00000	0.00000	0.00000	0.00000	-3115.85596	970.63373	447.00772	0.00000	0.00000	0.00000	-3187.31738	767.69092	504.62128	0.00000	0.00000	0.00000	-3201.90503	756.60333	428.49307	-3222.36597	511.67847	496.77579	0.00000	0.00000	0.00000	0.00000	0.00000	0.00000	0.00000	0.00000	0.00000	-3280.78125	348.31226	524.02405	0.00000	0.00000	0.00000	0.00000	0.00000	0.00000	-3223.42505	114.06026	550.56891	-3262.04126	37.00873	490.62689	-3216.06763	92.14886	690.25348	-3262.87695	104.07117	713.81567	-3322.75659	68.08940	681.94641
1308	5.22800	-2882.86475	986.15875	385.41577	-2898.17139	953.32666	571.04736	0.00000	0.00000	0.00000	0.00000	0.00000	0.00000	-2915.60059	599.19751	520.13690	-2945.98218	689.17377	577.70374	0.00000	0.00000	0.00000	-2941.42188	480.21207	479.08304	0.00000	0.00000	0.00000	0.00000	0.00000	0.00000	-3058.78076	40.89934	262.36554	0.00000	0.00000	0.00000	-2895.91748	113.27336	282.39032	-2951.41797	151.17152	240.67520	-2862.40381	74.57681	196.48982	-2984.43579	37.00557	342.25500	-3056.76538	44.72030	318.88345	0.00000	0.00000	0.00000	0.00000	0.00000	0.00000	-3117.65088	970.43506	450.22626	0.00000	0.00000	0.00000	-3188.45239	767.41132	508.43051	0.00000	0.00000	0.00000	-3203.46655	756.21710	432.35648	-3221.16455	511.06656	501.32971	0.00000	0.00000	0.00000	0.00000	0.00000	0.00000	0.00000	0.00000	0.00000	-3280.44214	347.55301	528.97345	0.00000	0.00000	0.00000	0.00000	0.00000	0.00000	-3222.33081	113.34889	554.44385	-3261.19531	36.27051	494.67737	-3212.82153	89.29891	693.01208	-3260.75781	103.15271	717.92584	-3320.72290	67.19892	686.32190
1309	5.23200	0.00000	0.00000	0.00000	-2899.01343	953.34698	572.89386	0.00000	0.00000	0.00000	0.00000	0.00000	0.00000	-2917.41699	599.30121	521.58374	-2946.34814	688.97931	579.57458	0.00000	0.00000	0.00000	-2941.84912	480.12369	480.74185	0.00000	0.00000	0.00000	0.00000	0.00000	0.00000	-3058.84131	40.97167	262.40527	0.00000	0.00000	0.00000	-2896.24292	113.83210	282.74533	-2952.58374	151.80135	241.60260	-2862.84326	75.55255	196.60809	-2984.43677	37.01744	342.22556	-3056.74585	44.76910	318.94589	0.00000	0.00000	0.00000	-3180.62207	828.86945	417.81165	-3119.29663	970.16797	453.36612	0.00000	0.00000	0.00000	-3189.62280	767.20361	512.32550	0.00000	0.00000	0.00000	-3205.05493	755.87537	436.33694	-3222.80029	511.00089	506.31967	0.00000	0.00000	0.00000	0.00000	0.00000	0.00000	0.00000	0.00000	0.00000	-3280.08569	346.75620	533.86115	0.00000	0.00000	0.00000	0.00000	0.00000	0.00000	-3221.16113	112.64156	558.10999	-3260.13892	35.48742	498.49463	-3210.77417	88.37356	696.61041	-3257.94434	102.15499	721.63934	0.00000	0.00000	0.00000
1310	5.23600	0.00000	0.00000	0.00000	-2899.73486	953.23950	574.86499	0.00000	0.00000	0.00000	0.00000	0.00000	0.00000	-2916.45850	598.71155	523.39337	-2946.76245	688.87469	581.44830	0.00000	0.00000	0.00000	-2942.45044	479.85519	482.55957	0.00000	0.00000	0.00000	0.00000	0.00000	0.00000	-3058.98950	41.07256	262.49866	0.00000	0.00000	0.00000	-2895.10181	114.51727	283.42737	-2953.14111	152.50354	242.36797	-2863.30933	76.80657	196.80972	-2984.44824	37.00719	342.20059	-3056.87207	44.79168	319.16241	0.00000	0.00000	0.00000	-3187.60693	829.75946	421.87201	-3120.97534	969.89032	456.66534	0.00000	0.00000	0.00000	0.00000	0.00000	0.00000	0.00000	0.00000	0.00000	-3206.61865	755.51288	440.33881	-3222.96851	510.67239	511.09564	0.00000	0.00000	0.00000	0.00000	0.00000	0.00000	0.00000	0.00000	0.00000	-3279.51050	345.84402	538.65521	0.00000	0.00000	0.00000	0.00000	0.00000	0.00000	-3219.86328	111.94199	561.61194	-3258.97485	35.11734	501.88800	-3208.71411	87.34824	700.02386	-3255.90454	100.91544	725.27820	-3316.81299	64.99831	694.16705
1311	5.24000	0.00000	0.00000	0.00000	-2900.54858	953.18347	576.79327	0.00000	0.00000	0.00000	0.00000	0.00000	0.00000	-2917.13843	598.49487	525.11957	-2947.04565	688.69543	583.40833	0.00000	0.00000	0.00000	-2943.20166	479.59631	484.39645	0.00000	0.00000	0.00000	0.00000	0.00000	0.00000	-3059.14014	41.20597	262.56570	0.00000	0.00000	0.00000	-2894.93335	115.43225	279.26343	-2952.91748	153.09013	242.84198	-2863.78931	78.02110	196.92192	-2984.47510	37.00121	342.14838	-3062.12476	47.07989	320.46176	0.00000	0.00000	0.00000	-3186.27637	828.29584	425.47580	-3122.73779	969.64014	459.97595	0.00000	0.00000	0.00000	0.00000	0.00000	0.00000	0.00000	0.00000	0.00000	-3208.16309	755.10016	444.39545	-3221.63086	510.04248	515.86951	0.00000	0.00000	0.00000	0.00000	0.00000	0.00000	0.00000	0.00000	0.00000	-3278.94922	344.95877	543.39343	0.00000	0.00000	0.00000	0.00000	0.00000	0.00000	-3218.51221	111.56002	565.13989	-3257.87451	35.35701	504.82840	-3204.50854	86.30450	702.35468	-3254.71069	99.67383	728.78357	0.00000	0.00000	0.00000
1312	5.24400	0.00000	0.00000	0.00000	-2901.32812	953.16547	578.76581	0.00000	0.00000	0.00000	0.00000	0.00000	0.00000	-2917.72974	598.36096	526.83905	-2947.39526	688.56702	585.38312	0.00000	0.00000	0.00000	-2943.67749	479.38690	486.24445	0.00000	0.00000	0.00000	0.00000	0.00000	0.00000	-3059.27100	41.30886	262.65714	0.00000	0.00000	0.00000	-2895.26733	116.03829	279.57980	-2953.71191	153.90410	243.65883	-2864.03223	79.16344	197.00648	-2984.50293	37.00514	342.08469	-3062.15088	47.16536	320.58920	0.00000	0.00000	0.00000	-3188.03467	827.89264	429.21576	-3124.43164	969.35992	463.33557	0.00000	0.00000	0.00000	-3192.93530	766.84137	524.15491	0.00000	0.00000	0.00000	-3209.58813	754.66925	448.54886	-3223.15796	509.98932	520.83490	0.00000	0.00000	0.00000	0.00000	0.00000	0.00000	0.00000	0.00000	0.00000	-3278.32031	344.01752	548.03552	0.00000	0.00000	0.00000	0.00000	0.00000	0.00000	-3217.09106	111.09151	568.30084	-3256.82397	35.48225	507.50699	-3206.54126	82.92960	705.81073	-3252.59644	98.02259	731.80414	0.00000	0.00000	0.00000
1313	5.24800	0.00000	0.00000	0.00000	-2902.07642	953.02747	580.77594	0.00000	0.00000	0.00000	0.00000	0.00000	0.00000	-2918.16162	598.25519	528.62683	-2947.59692	688.37823	587.40479	0.00000	0.00000	0.00000	-2944.31152	479.09778	488.24072	0.00000	0.00000	0.00000	0.00000	0.00000	0.00000	-3059.42554	41.38970	262.73721	0.00000	0.00000	0.00000	-2895.41357	116.85844	279.92715	-2955.00415	154.60901	244.71449	-2865.12134	80.11003	196.17142	-2984.50342	36.98467	342.07648	-3062.19067	47.25515	320.74350	0.00000	0.00000	0.00000	-3192.88232	828.54193	433.14355	-3126.09180	969.07233	466.72720	0.00000	0.00000	0.00000	0.00000	0.00000	0.00000	0.00000	0.00000	0.00000	-3211.02759	754.28278	452.65314	-3223.20630	509.62558	525.65411	0.00000	0.00000	0.00000	0.00000	0.00000	0.00000	0.00000	0.00000	0.00000	-3277.53857	342.98904	552.55450	0.00000	0.00000	0.00000	0.00000	0.00000	0.00000	-3213.21118	111.10650	569.73938	-3255.87500	35.66095	509.84171	0.00000	0.00000	0.00000	-3250.30396	96.12235	734.73431	0.00000	0.00000	0.00000
